<?xml version="1.0" standalone="no"?>
<!DOCTYPE svg PUBLIC "-//W3C//DTD SVG 20010904//EN"
 "http://www.w3.org/TR/2001/REC-SVG-20010904/DTD/svg10.dtd">
<svg version="1.0" xmlns="http://www.w3.org/2000/svg"
 width="700.000000pt" height="700.000000pt" viewBox="0 0 700.000000 700.000000"
 preserveAspectRatio="xMidYMid meet">
<metadata>
Created by potrace 1.11, written by Peter Selinger 2001-2013
</metadata>
<g transform="translate(0.000000,700.000000) scale(0.100000,-0.100000)"
fill="#000000" stroke="none">
<path d="M50 6337 l0 -134 146 1 c80 1 149 -1 153 -4 4 -3 8 -227 8 -497 l0
-493 -36 -1 c-20 0 -89 0 -153 0 l-118 1 0 -135 0 -135 458 2 457 3 0 130 0
130 -100 2 c-55 1 -124 2 -152 2 l-53 1 0 498 0 497 150 -1 c82 0 151 2 151 5
1 3 2 63 3 134 l2 127 -458 0 -458 0 0 -133z"/>
<path d="M1329 6466 c-3 -3 -3 -1463 0 -1513 1 -10 38 -13 151 -13 136 0 150
2 151 18 0 9 1 159 2 332 l2 315 275 2 c151 1 284 2 295 2 19 1 20 8 21 131 0
84 -4 130 -10 131 -6 0 -139 2 -296 2 l-285 2 -1 163 c0 89 2 162 5 163 3 1
150 2 326 2 l319 2 0 130 0 130 -475 3 c-262 1 -477 0 -480 -2z"/>
<path d="M2609 5229 c-9 -5 -12 -75 -10 -231 l1 -58 2055 0 2055 0 0 -1735 c0
-954 3 -1735 8 -1736 10 -1 254 -1 270 0 10 1 12 352 10 1779 -3 1741 -3 1778
-23 1817 -20 43 -74 101 -115 126 -71 43 -17 42 -2182 43 -1133 1 -2064 -2
-2069 -5z"/>
<path d="M2250 4330 l0 -145 123 0 122 0 0 145 0 145 -122 0 -123 1 0 -146z"/>
<path d="M1350 4348 c-36 -3 -77 -11 -92 -17 -16 -6 -28 -8 -28 -5 0 3 -28
-10 -62 -28 -70 -37 -178 -139 -178 -168 0 -5 -5 -10 -12 -10 -6 0 -8 -3 -5
-7 4 -3 2 -11 -3 -18 -16 -19 -41 -95 -60 -185 -15 -68 -18 -116 -15 -245 3
-135 8 -200 15 -200 1 0 3 -11 6 -25 35 -195 170 -346 353 -395 60 -16 206
-17 276 -3 28 5 56 10 63 11 6 0 12 4 12 9 0 4 8 8 18 8 45 1 50 18 50 163 0
75 -4 137 -9 137 -5 0 -9 -4 -9 -8 0 -4 -18 -19 -40 -32 -22 -14 -40 -28 -40
-32 0 -3 -15 -10 -32 -13 -18 -4 -37 -11 -43 -15 -23 -17 -137 -14 -184 6 -91
38 -153 144 -169 289 -22 209 11 398 85 481 43 49 100 74 171 76 73 2 158 -22
192 -54 11 -10 22 -18 25 -18 4 0 13 -7 21 -15 9 -8 19 -15 24 -15 4 0 8 61 8
135 0 151 6 139 -83 170 -65 22 -173 32 -255 23z"/>
<path d="M3210 4148 l0 -136 -112 0 c-62 0 -118 -1 -125 -1 -8 -1 -11 -14 -9
-36 1 -19 -2 -35 -7 -35 -6 0 -6 -5 0 -12 5 -7 9 -34 8 -60 -2 -30 2 -48 9
-49 6 0 61 -1 121 -2 l110 -2 2 -255 c1 -248 12 -355 37 -389 33 -43 78 -78
112 -88 90 -26 116 -29 271 -32 l161 -3 -1 99 -2 98 -120 1 c-133 1 -178 15
-195 60 -6 14 -10 135 -10 269 l0 243 143 0 c78 0 152 1 165 1 22 1 23 3 21
96 -1 80 -4 95 -18 96 -9 0 -82 0 -163 0 l-148 -1 0 135 c0 101 -3 135 -12
136 -7 0 -64 1 -126 2 l-112 2 0 -137z"/>
<path d="M2 2498 l3 -1773 23 -46 c31 -62 86 -116 147 -145 l50 -24 2368 0
c1891 0 2367 2 2368 12 0 7 1 72 2 143 l0 130 -2294 2 c-1262 2 -2312 3 -2334
3 l-41 0 1 1723 c0 947 -1 1728 -3 1735 -3 9 -42 12 -148 12 l-144 0 2 -1772z"/>
<path d="M2044 4012 l-41 -3 1 -94 c0 -78 3 -95 16 -96 8 0 63 -1 123 -1 l107
0 0 -283 c0 -261 -1 -283 -17 -287 -10 -2 -80 -3 -155 -2 -92 0 -138 -3 -139
-10 -4 -46 -5 -163 -2 -172 3 -9 122 -12 439 -13 l434 -1 0 98 0 98 -152 0
-153 -1 -5 384 -5 383 -205 2 c-113 0 -223 0 -246 -2z"/>
<path d="M4009 4010 l-36 -5 50 -125 c60 -155 85 -219 132 -340 19 -52 40
-104 45 -115 26 -59 122 -313 127 -335 3 -18 -5 -48 -22 -86 -48 -102 -67
-115 -185 -120 -41 -2 -78 -3 -82 -4 -5 0 -8 -43 -8 -96 l0 -96 143 4 c114 3
149 7 177 22 84 44 145 134 201 292 17 49 35 93 40 99 5 5 9 17 9 26 0 9 7 30
15 45 8 16 15 36 15 44 0 9 4 20 9 25 5 6 14 28 21 50 7 22 18 54 25 70 8 17
25 62 39 100 14 39 34 95 46 125 41 107 48 125 60 160 6 19 16 44 20 55 26 58
76 205 71 205 -11 1 -206 1 -233 1 -19 -1 -29 -8 -33 -23 -3 -13 -10 -32 -15
-43 -4 -11 -25 -72 -45 -135 -21 -63 -43 -129 -51 -145 -7 -17 -15 -42 -18
-55 -3 -14 -20 -67 -39 -118 l-34 -94 -16 44 c-16 43 -55 157 -129 368 -22 63
-43 124 -48 135 -5 11 -12 30 -15 43 -4 12 -12 22 -18 23 -53 4 -189 3 -218
-1z"/>
<path d="M890 2028 l0 -638 399 0 399 0 1 110 c0 79 -3 110 -12 111 -7 0 -129
1 -272 2 l-260 2 0 163 c0 89 2 163 5 163 3 1 111 3 240 4 129 2 238 3 241 4
3 1 5 49 5 109 l-1 107 -238 1 c-131 1 -241 4 -244 8 -9 9 -10 256 -2 262 4 2
126 4 272 5 l265 1 -1 111 -2 112 -397 1 -398 0 0 -638z"/>
<path d="M5300 2484 l0 -134 -57 -1 c-32 0 -87 -1 -123 -2 l-65 -2 -1 -92 c-1
-62 2 -93 10 -94 6 -1 61 -2 121 -3 l110 -1 5 -292 c4 -215 8 -295 18 -305 6
-6 12 -20 12 -30 0 -32 67 -94 123 -114 74 -26 421 -34 430 -10 4 9 2 16 -3
16 -5 0 -6 10 -2 23 9 28 9 48 -2 65 -5 8 -4 18 2 24 12 12 4 48 -12 49 -6 1
-54 1 -106 1 -118 -1 -165 11 -188 45 -15 24 -17 57 -18 275 -1 179 1 248 10
249 6 1 79 2 161 3 l150 1 6 43 c3 24 2 45 -2 47 -4 3 -3 21 1 40 4 20 4 38
-1 41 -5 3 -7 10 -4 15 4 5 -52 9 -142 9 -81 -1 -155 -1 -164 -1 -14 1 -17 17
-17 119 0 64 0 124 -1 133 -1 14 -18 16 -126 16 l-125 0 0 -133z"/>
<path d="M3287 2364 c-3 -3 -11 -7 -19 -8 -158 -27 -289 -171 -324 -356 -11
-58 -12 -228 -1 -273 47 -205 165 -320 362 -355 65 -11 255 -5 322 11 34 8 64
12 67 9 3 -3 6 0 6 7 0 7 4 10 8 7 4 -2 26 3 47 13 l40 17 0 112 c0 62 -1 112
-2 112 -1 0 -30 -13 -65 -29 -108 -49 -175 -65 -278 -65 -81 0 -103 3 -145 24
-30 15 -61 41 -77 65 -32 46 -48 124 -26 126 7 1 153 2 323 3 l310 1 1 80 c1
172 -38 293 -124 382 -47 50 -139 101 -187 105 -14 1 -25 5 -25 9 0 8 -205 10
-213 3z m157 -198 c74 -12 136 -84 136 -158 l0 -34 -194 -1 -194 -2 3 31 c6
40 42 108 68 128 29 21 98 47 122 44 11 -1 37 -5 59 -8z"/>
<path d="M4457 2356 c-58 -21 -104 -57 -127 -98 -12 -21 -22 -38 -23 -38 -1 0
-2 28 -2 63 l0 62 -126 3 -125 3 0 -480 0 -481 125 0 126 0 1 308 c1 338 5
369 57 426 28 30 40 36 78 37 72 3 110 -28 125 -101 4 -19 7 -178 8 -352 l1
-318 121 0 c89 0 123 3 126 13 7 22 1 681 -7 727 -26 150 -117 235 -256 238
-35 1 -81 -4 -102 -12z"/>
<path d="M1874 2327 c4 -12 9 -29 11 -37 24 -81 71 -226 75 -230 3 -3 6 -11 8
-18 1 -7 4 -20 6 -30 1 -9 8 -30 14 -45 7 -16 12 -31 12 -35 0 -4 24 -81 54
-172 29 -91 67 -211 85 -267 l32 -103 157 0 157 0 19 63 c36 115 96 302 111
347 8 25 17 54 19 65 2 11 11 38 19 60 8 22 32 94 52 160 20 66 39 127 42 135
3 8 7 20 9 25 1 6 9 31 17 56 l14 47 -127 0 -128 1 -22 -82 c-12 -45 -30 -111
-41 -146 -10 -34 -21 -73 -24 -85 -2 -11 -9 -39 -16 -61 -6 -22 -13 -52 -16
-67 -3 -16 -8 -28 -12 -28 -4 0 -7 -8 -7 -17 -2 -29 -58 -240 -66 -249 -2 -2
-16 45 -32 104 -15 59 -30 114 -33 122 -3 8 -8 23 -10 34 -3 17 -57 216 -87
321 -8 28 -21 73 -28 100 l-14 50 -128 2 c-127 1 -128 1 -122 -20z"/>
</g>
</svg>
